<svg width="21" height="21" viewBox="0 0 21 21" fill="none" xmlns="http://www.w3.org/2000/svg">
<path d="M16.2275 4.86156C16.2275 4.86156 17.7314 4.27511 17.6056 5.69924C17.5641 6.28569 17.1883 8.33845 16.8956 10.5584L15.893 17.1352C15.893 17.1352 15.8094 18.0987 15.0573 18.2663C14.3055 18.4335 13.1775 17.6798 12.9685 17.5122C12.8013 17.3864 9.8353 15.5013 8.79091 14.58C8.49826 14.3284 8.1638 13.8259 8.83271 13.2395L13.2193 9.05032C13.7206 8.5471 14.2219 7.3742 12.1331 8.79871L6.28404 12.778C6.28404 12.778 5.61552 13.1973 4.36248 12.8202L1.64658 11.9822C1.64658 11.9822 0.643991 11.3539 2.35691 10.7257C6.53489 8.7569 11.6736 6.74633 16.2271 4.86118" fill="white"/>
</svg>
