<svg width="132" height="66" viewBox="0 0 132 66" fill="none" xmlns="http://www.w3.org/2000/svg">
<g clip-path="url(#clip0_12_35)">
<path d="M22.6445 56.5956H32.9109C34.0895 52.7676 34.9531 44.5512 36.1999 32.1333C34.6707 36.0206 31.1511 40.3793 31.1511 40.3793C31.1511 40.3793 27.8556 51.6853 22.6445 56.5956Z" fill="white"/>
<path d="M39.3879 18.8057C39.3911 21.0769 38.3229 26.8975 37.4236 28.896L35.6216 56.5962H39.4496L39.3879 18.8057Z" fill="white"/>
<path d="M46.9035 32.4272H50.4003V32.7682C50.1276 32.7831 49.9262 32.7979 49.7931 32.8157C49.66 32.8335 49.5366 32.8809 49.4165 32.961C49.2964 33.0381 49.2347 33.1596 49.2347 33.3227V33.6222C49.4522 33.5095 49.6892 33.4354 49.9522 33.3998C50.2152 33.3642 50.41 33.3464 50.5366 33.3464C50.8873 33.3464 51.2185 33.4028 51.5334 33.5154C51.8484 33.6281 52.1211 33.7853 52.3516 33.9899C52.5854 34.1945 52.7672 34.4376 52.9003 34.7193C53.0334 35.001 53.0984 35.3034 53.0984 35.6266C53.0984 36.0714 52.9912 36.4895 52.7769 36.8838C52.5626 37.2752 52.2575 37.5895 51.8613 37.8267C51.4652 38.0639 50.9977 38.1825 50.4652 38.1825L50.4425 38.1618C50.2574 38.1618 50.0366 38.141 49.7736 38.0995C49.5107 38.058 49.3321 38.0076 49.2314 37.9483V38.3516C49.2314 38.6125 49.2736 38.7993 49.3581 38.9179C49.4425 39.0365 49.5594 39.1106 49.7055 39.1403C49.8516 39.1699 50.0821 39.1907 50.3938 39.2026V39.5435H46.897V39.2026C47.2152 39.1907 47.4489 39.1729 47.5951 39.1403C47.7412 39.1077 47.8548 39.0365 47.9392 38.9179C48.0236 38.7993 48.0658 38.6095 48.0658 38.3486V37.9661C47.9652 38.0254 47.7834 38.0758 47.5236 38.1173C47.2639 38.1588 47.0398 38.1796 46.8548 38.1796L46.8093 38.2003C46.2801 38.2003 45.8158 38.0817 45.4197 37.8445C45.0236 37.6073 44.7216 37.293 44.5138 36.9016C44.306 36.5102 44.2021 36.0921 44.2021 35.6444C44.2021 35.1967 44.3158 34.8231 44.5463 34.4761C44.7736 34.1292 45.0853 33.8564 45.4781 33.6607C45.871 33.465 46.2996 33.3672 46.7639 33.3672C47.2769 33.3672 47.7119 33.4591 48.0691 33.6429C48.0691 33.6341 48.0691 33.6222 48.0593 33.6103C48.0528 33.5955 48.0496 33.5866 48.0464 33.5807C48.0366 33.2427 47.9457 33.0262 47.7704 32.9313C47.595 32.8394 47.3061 32.786 46.9035 32.7742V32.4332V32.4272ZM48.0691 34.0462C47.8418 33.8742 47.5139 33.7882 47.0918 33.7882C46.8645 33.7882 46.6308 33.8238 46.3937 33.895C45.9879 34.0521 45.7054 34.2627 45.5496 34.5236C45.3937 34.7845 45.3093 35.17 45.2963 35.683C45.2963 35.6918 45.2931 35.7067 45.2833 35.7274C45.2768 35.7482 45.2736 35.763 45.2736 35.7689C45.2736 36.1129 45.332 36.4331 45.4489 36.7326C45.5658 37.0291 45.7379 37.2693 45.9652 37.4561C46.1924 37.6429 46.4587 37.7378 46.7639 37.7496C46.7801 37.7526 46.8061 37.7585 46.8483 37.7615C46.8905 37.7674 46.9392 37.7704 46.9976 37.7704C47.4554 37.7704 47.8126 37.7081 48.0691 37.5806V34.0492V34.0462ZM49.2347 37.5539C49.4912 37.6814 49.8386 37.7467 50.2801 37.7467C50.3386 37.7467 50.3905 37.7467 50.4392 37.7378C50.4879 37.7289 50.5172 37.7289 50.5366 37.7259C50.9944 37.7022 51.3548 37.5035 51.6146 37.124C51.8743 36.7445 52.0042 36.2849 52.0042 35.7482V35.6622C51.9945 35.3093 51.9555 35.0247 51.8906 34.8053C51.8224 34.5859 51.712 34.405 51.5594 34.2597C51.4035 34.1144 51.1893 33.9869 50.9133 33.8772C50.673 33.806 50.4327 33.7704 50.1892 33.7704C49.7834 33.7704 49.4652 33.8564 49.2379 34.0254V37.5569L49.2347 37.5539Z" fill="white"/>
<path d="M59.5541 34.2807L55.6904 38.3222C55.6904 38.5831 55.7326 38.7699 55.817 38.8885C55.9014 39.0071 56.0183 39.0812 56.1644 39.1109C56.3105 39.1405 56.5411 39.1613 56.8528 39.1731V39.5141H53.356V39.1731C53.6741 39.1613 53.9079 39.1435 54.054 39.1109C54.2001 39.0812 54.3138 39.0071 54.3982 38.8885C54.4826 38.7699 54.5248 38.5801 54.5248 38.3192V33.5987C54.5248 33.3378 54.4826 33.151 54.3949 33.0324C54.3073 32.9138 54.1936 32.8396 54.0443 32.81C53.8982 32.7803 53.6676 32.7596 53.356 32.7477V32.4067H56.8528V32.7477C56.4631 32.7477 56.1612 32.7981 55.9469 32.896C55.8365 32.9494 55.7683 33.0353 55.7359 33.151C55.7066 33.2666 55.6904 33.4178 55.6904 33.5987V37.6817L59.5541 33.5987C59.5541 33.3556 59.5119 33.1717 59.4275 33.0531C59.3431 32.9316 59.2229 32.8545 59.0671 32.8159C58.9112 32.7774 58.6872 32.7566 58.3917 32.7477V32.4067H61.8885V32.7477C61.4794 32.7477 61.1775 32.7981 60.9794 32.896C60.8691 32.9494 60.8009 33.0353 60.7684 33.151C60.7392 33.2666 60.7229 33.4178 60.7229 33.5987V38.3192C60.7229 38.589 60.7684 38.7818 60.8593 38.9004C60.9502 39.019 61.0671 39.0931 61.21 39.1168C61.3528 39.1405 61.5801 39.1583 61.8885 39.1702V39.5112H58.3917V39.1702C58.6937 39.1613 58.921 39.1405 59.0736 39.102C59.2262 39.0664 59.3463 38.9863 59.4275 38.8677C59.5119 38.7491 59.5541 38.5653 59.5541 38.3162V34.2748V34.2807Z" fill="white"/>
<path d="M68.4276 35.9827H64.5639V38.3222C64.5639 38.5831 64.6061 38.7699 64.6906 38.8885C64.775 39.0071 64.8919 39.0812 65.038 39.1109C65.1841 39.1405 65.4146 39.1613 65.7263 39.1731V39.5141H62.2295V39.1731C62.5477 39.1613 62.7814 39.1435 62.9276 39.1109C63.0737 39.0812 63.1873 39.0071 63.2717 38.8885C63.3561 38.7699 63.3983 38.5801 63.3983 38.3192V33.5987C63.3983 33.3378 63.3561 33.151 63.2685 33.0324C63.1808 32.9138 63.0672 32.8396 62.9178 32.81C62.7717 32.7803 62.5412 32.7596 62.2295 32.7477V32.4067H65.7263V32.7477C65.3367 32.7477 65.0347 32.7981 64.8204 32.896C64.71 32.9494 64.6419 33.0353 64.6094 33.151C64.5802 33.2666 64.5639 33.4178 64.5639 33.5987V35.5349H68.4276V33.5987C68.4276 33.3556 68.3854 33.1717 68.301 33.0531C68.2166 32.9316 68.0965 32.8545 67.9406 32.8159C67.7848 32.7774 67.5607 32.7566 67.2653 32.7477V32.4067H70.7588V32.7477C70.3497 32.7477 70.0478 32.7981 69.8497 32.896C69.7393 32.9494 69.6712 33.0353 69.6387 33.151C69.6062 33.2666 69.5932 33.4178 69.5932 33.5987V38.3192C69.5932 38.589 69.6387 38.7818 69.7296 38.9004C69.8205 39.019 69.9374 39.0931 70.0802 39.1168C70.2231 39.1405 70.4504 39.1583 70.7588 39.1702V39.5112H67.2653V39.1702C67.5672 39.1613 67.7945 39.1405 67.9471 39.102C68.0997 39.0664 68.2198 38.9863 68.301 38.8677C68.3854 38.7491 68.4244 38.5653 68.4244 38.3162V35.9767L68.4276 35.9827Z" fill="white"/>
<path d="M75.3975 32.3027L78.3326 38.4732C78.4528 38.7163 78.5956 38.8942 78.7612 39.0069C78.9268 39.1195 79.1476 39.1729 79.4268 39.1729V39.5139H76.2092V39.1729H76.469C76.917 39.1729 77.1443 39.0662 77.1443 38.8527C77.1443 38.7637 77.1118 38.6362 77.0501 38.4702L76.4203 37.1062H73.3228L72.7157 38.4702C72.654 38.6095 72.6215 38.7074 72.6215 38.7667C72.6215 39.0365 72.8618 39.1729 73.3423 39.1729H73.5988V39.5139H70.8975V39.1729C71.2546 39.1729 71.5241 39.1255 71.7124 39.0306C71.9007 38.9357 72.0533 38.7489 72.1767 38.4732L74.9722 32.3027H75.3943H75.3975ZM76.1897 36.6644L75.1897 34.4109C75.0047 33.9662 74.8943 33.6815 74.8618 33.5599C74.8358 33.6074 74.8034 33.6934 74.7676 33.8179L73.5111 36.6674H76.1897V36.6644Z" fill="white"/>
<path d="M85.8305 35.9827H81.9668V38.3222C81.9668 38.5831 82.009 38.7699 82.0934 38.8885C82.1778 39.0071 82.2947 39.0812 82.4408 39.1109C82.5869 39.1405 82.8174 39.1613 83.1291 39.1731V39.5141H79.6323V39.1731C79.9505 39.1613 80.1843 39.1435 80.3304 39.1109C80.4765 39.0812 80.5901 39.0071 80.6745 38.8885C80.759 38.7699 80.8012 38.5801 80.8012 38.3192V33.5987C80.8012 33.3378 80.759 33.151 80.6713 33.0324C80.5836 32.9138 80.47 32.8396 80.3206 32.81C80.1745 32.7803 79.944 32.7596 79.6323 32.7477V32.4067H83.1291V32.7477C82.7395 32.7477 82.4376 32.7981 82.2233 32.896C82.1129 32.9494 82.0447 33.0353 82.0122 33.151C81.983 33.2666 81.9668 33.4178 81.9668 33.5987V35.5349H85.8305V33.5987C85.8305 33.3556 85.7883 33.1717 85.7038 33.0531C85.6194 32.9316 85.4993 32.8545 85.3434 32.8159C85.1876 32.7774 84.9636 32.7566 84.6681 32.7477V32.4067H88.1617V32.7477C87.7526 32.7477 87.4506 32.7981 87.2526 32.896C87.1422 32.9494 87.074 33.0353 87.0415 33.151C87.009 33.2666 86.9961 33.4178 86.9961 33.5987V38.3192C86.9961 38.589 87.0415 38.7818 87.1324 38.9004C87.2233 39.019 87.3402 39.0931 87.4831 39.1168C87.6259 39.1405 87.8532 39.1583 88.1617 39.1702V39.5112H84.6681V39.1702C84.9701 39.1613 85.1973 39.1405 85.3499 39.102C85.5025 39.0664 85.6227 38.9863 85.7038 38.8677C85.7883 38.7491 85.8272 38.5653 85.8272 38.3162V35.9767L85.8305 35.9827Z" fill="white"/>
<path d="M95.9668 32.4275L96.0837 34.9805H95.7103C95.5869 34.515 95.4084 34.1087 95.1746 33.7559C94.9408 33.4031 94.6356 33.1243 94.259 32.9227C93.8824 32.7211 93.4343 32.6173 92.9148 32.6173C92.3109 32.6173 91.8077 32.7774 91.4083 33.0976C91.009 33.4179 90.7167 33.8271 90.5349 34.3252C90.3499 34.8233 90.2589 35.3393 90.2589 35.873C90.2589 36.4512 90.3596 36.9908 90.5674 37.4949C90.7719 37.999 91.0934 38.4052 91.5284 38.7136C91.9635 39.022 92.5057 39.1761 93.1518 39.1761C93.733 39.1761 94.2947 39.0101 94.8304 38.678C95.3694 38.3459 95.7493 37.9308 95.9701 37.4297L96.3889 37.7292C96.1908 38.1354 95.9084 38.4882 95.5415 38.7877C95.1714 39.0872 94.7525 39.3155 94.2817 39.4727C93.811 39.6298 93.3337 39.7099 92.8499 39.7099C92.2817 39.7099 91.7557 39.618 91.2687 39.4371C90.7817 39.2562 90.3693 39.0012 90.0219 38.6721C89.6745 38.3429 89.405 37.9545 89.22 37.5038C89.0317 37.0531 88.9375 36.5698 88.9375 36.0509C88.9375 35.532 89.0317 35.0517 89.22 34.5921C89.4083 34.1325 89.6778 33.7233 90.0284 33.3704C90.3791 33.0176 90.7979 32.7389 91.2882 32.5402C91.7785 32.3415 92.3044 32.2407 92.8759 32.2407C93.785 32.2407 94.6226 32.4809 95.3921 32.9642C95.4636 32.8604 95.548 32.6855 95.6486 32.4335H95.9766L95.9668 32.4275Z" fill="white"/>
<path d="M101.045 39.707C100.279 39.707 99.581 39.5469 98.9511 39.2237C98.3212 38.9005 97.8245 38.4527 97.4641 37.8805C97.1037 37.3082 96.9219 36.6677 96.9219 35.962C96.9219 35.2563 97.1005 34.607 97.4576 34.0377C97.8148 33.4684 98.3083 33.0266 98.9381 32.7093C99.568 32.392 100.269 32.2349 101.045 32.2349C101.821 32.2349 102.539 32.392 103.169 32.7093C103.802 33.0266 104.295 33.4684 104.656 34.0377C105.013 34.607 105.195 35.2474 105.195 35.962C105.195 36.6766 105.013 37.3112 104.653 37.8834C104.289 38.4557 103.792 38.9034 103.156 39.2237C102.519 39.5469 101.818 39.707 101.045 39.707ZM101.045 39.3245C101.721 39.3245 102.266 39.1673 102.682 38.8501C103.097 38.5328 103.396 38.1236 103.575 37.6195C103.753 37.1155 103.841 36.5639 103.841 35.965C103.841 35.5173 103.792 35.0962 103.698 34.6989C103.604 34.3016 103.448 33.9428 103.234 33.6255C103.019 33.3053 102.73 33.0503 102.367 32.8635C102.003 32.6737 101.562 32.5788 101.045 32.5788C100.529 32.5788 100.1 32.6737 99.7401 32.8635C99.3797 33.0532 99.094 33.3053 98.8797 33.6255C98.6654 33.9457 98.5128 34.3045 98.4154 34.7018C98.318 35.0992 98.2725 35.5202 98.2725 35.965C98.2725 36.5669 98.3602 37.1214 98.5355 37.6255C98.7109 38.1295 99.0063 38.5387 99.4219 38.856C99.8343 39.1703 100.376 39.3274 101.045 39.3274V39.3245Z" fill="white"/>
<path d="M109.57 35.662C110.005 35.6798 110.411 35.7598 110.79 35.9051C111.17 36.0504 111.476 36.2639 111.713 36.5486C111.946 36.8332 112.066 37.1772 112.066 37.5804C112.066 37.9629 111.963 38.3009 111.755 38.5975C111.547 38.894 111.268 39.1193 110.914 39.2765C110.56 39.4336 110.174 39.5137 109.758 39.5137H105.797V39.1727C106.115 39.1608 106.349 39.143 106.495 39.1104C106.641 39.0808 106.755 39.0066 106.839 38.888C106.924 38.7694 106.962 38.5797 106.962 38.3187V33.5983C106.962 33.3373 106.92 33.1476 106.839 33.029C106.758 32.9104 106.641 32.8362 106.495 32.8066C106.349 32.7769 106.118 32.7562 105.797 32.7443V32.4033H109.57C109.927 32.4033 110.268 32.4626 110.586 32.5812C110.904 32.6998 111.161 32.8777 111.355 33.1149C111.55 33.3522 111.644 33.6398 111.644 33.9778C111.644 34.4967 111.453 34.8881 111.066 35.152C110.68 35.4159 110.183 35.5849 109.566 35.659L109.57 35.662ZM108.128 35.5345C108.631 35.5345 109.034 35.5078 109.336 35.4574C109.638 35.407 109.885 35.2795 110.076 35.0808C110.268 34.8822 110.362 34.5708 110.362 34.1527C110.362 33.6931 110.264 33.3462 110.07 33.1149C109.875 32.8837 109.537 32.768 109.057 32.768H108.128V35.5345ZM108.128 35.8755V38.3217C108.128 38.639 108.225 38.8525 108.417 38.9651C108.609 39.0778 108.894 39.1312 109.268 39.1312C109.79 39.1312 110.167 38.974 110.394 38.6597C110.622 38.3454 110.735 37.9362 110.735 37.4262C110.735 36.9459 110.622 36.5901 110.391 36.3647C110.161 36.1394 109.875 36 109.531 35.9496C109.187 35.8992 108.719 35.8725 108.128 35.8725V35.8755Z" fill="white"/>
<path d="M115.184 33.6013V35.5375C115.505 35.5375 115.732 35.5375 115.865 35.5345C115.999 35.5345 116.106 35.5286 116.184 35.5227C116.262 35.5167 116.323 35.5167 116.369 35.5167C116.927 35.5167 117.414 35.6027 117.826 35.7717C118.239 35.9437 118.554 36.1839 118.775 36.4952C118.995 36.8066 119.112 37.1683 119.119 37.5805C119.119 37.963 119.015 38.301 118.807 38.5975C118.599 38.894 118.32 39.1194 117.966 39.2765C117.612 39.4337 117.226 39.5137 116.81 39.5137H112.849V39.1698C113.167 39.1579 113.401 39.1401 113.547 39.1075C113.693 39.0778 113.807 39.0037 113.891 38.8851C113.976 38.7665 114.018 38.5767 114.018 38.3158V33.5953C114.018 33.3344 113.976 33.1446 113.891 33.026C113.807 32.9074 113.693 32.8333 113.547 32.8036C113.401 32.774 113.167 32.7532 112.849 32.7414V32.4004H116.346V32.7414C115.956 32.7414 115.661 32.7918 115.463 32.8896C115.343 32.943 115.265 33.029 115.232 33.1446C115.2 33.2603 115.184 33.4115 115.184 33.5924V33.6013ZM115.184 35.8963V38.3188C115.184 38.636 115.281 38.8495 115.473 38.9622C115.664 39.0749 115.95 39.1283 116.323 39.1283C116.846 39.1283 117.223 38.9711 117.45 38.6598C117.677 38.3455 117.791 37.9363 117.791 37.4263C117.791 36.9756 117.693 36.6405 117.499 36.4152C117.304 36.1898 117.05 36.0475 116.742 35.9882C116.43 35.9259 116.037 35.8963 115.557 35.8963H115.184ZM123.008 39.5345H119.515V39.1905C119.833 39.1816 120.063 39.1609 120.21 39.1283C120.356 39.0986 120.469 39.0245 120.554 38.9059C120.638 38.7873 120.677 38.5975 120.677 38.3366V33.6161C120.677 33.3552 120.635 33.1684 120.554 33.0498C120.469 32.9311 120.356 32.857 120.21 32.8274C120.063 32.7977 119.833 32.777 119.515 32.7651V32.4241H123.008V32.7651C122.619 32.7651 122.323 32.8155 122.125 32.9134C122.002 32.9697 121.924 33.0557 121.891 33.1743C121.859 33.2899 121.843 33.4382 121.843 33.6191V38.3395C121.843 38.6005 121.885 38.7873 121.973 38.9059C122.06 39.0245 122.174 39.0986 122.323 39.1283C122.469 39.1579 122.7 39.1787 123.012 39.1905V39.5345H123.008Z" fill="white"/>
<path d="M129.648 34.28L125.785 38.3215C125.785 38.5824 125.827 38.7692 125.911 38.8878C125.996 39.0064 126.113 39.0805 126.259 39.1102C126.405 39.1399 126.635 39.1606 126.947 39.1725V39.5135H123.45V39.1725C123.768 39.1606 124.002 39.1428 124.148 39.1102C124.294 39.0805 124.408 39.0064 124.492 38.8878C124.577 38.7692 124.619 38.5794 124.619 38.3185V33.598C124.619 33.3371 124.577 33.1503 124.489 33.0317C124.402 32.9131 124.288 32.839 124.139 32.8093C123.992 32.7797 123.762 32.7589 123.45 32.747V32.4061H126.947V32.747C126.557 32.747 126.255 32.7975 126.041 32.8953C125.931 32.9487 125.863 33.0347 125.83 33.1503C125.801 33.2659 125.785 33.4172 125.785 33.598V37.681L129.648 33.598C129.648 33.3549 129.606 33.1711 129.522 33.0525C129.437 32.9309 129.317 32.8538 129.161 32.8152C129.005 32.7767 128.781 32.7559 128.486 32.747V32.4061H131.98V32.747C131.57 32.747 131.268 32.7975 131.07 32.8953C130.96 32.9487 130.892 33.0347 130.859 33.1503C130.827 33.2659 130.814 33.4172 130.814 33.598V38.3185C130.814 38.5883 130.859 38.7811 130.95 38.8997C131.041 39.0183 131.158 39.0924 131.301 39.1161C131.444 39.1399 131.671 39.1576 131.98 39.1695V39.5105H128.486V39.1695C128.788 39.1606 129.015 39.1399 129.168 39.1013C129.32 39.0657 129.441 38.9857 129.522 38.8671C129.606 38.7485 129.645 38.5646 129.645 38.3155V34.2741L129.648 34.28ZM127.879 31.0895C128.113 31.0895 128.34 31.0599 128.567 30.9976C128.791 30.9354 128.905 30.8316 128.905 30.6833C128.859 30.4698 128.837 30.3275 128.837 30.2563C128.837 30.1199 128.892 30.0013 128.999 29.8976C129.109 29.7938 129.239 29.7374 129.392 29.7256H129.441C129.538 29.7256 129.642 29.7463 129.746 29.7879C129.85 29.8294 129.928 29.8709 129.976 29.9154C130.083 30.031 130.139 30.1881 130.139 30.3868C130.132 30.6833 129.992 30.9116 129.726 31.0777C129.46 31.2437 129.155 31.3534 128.811 31.4098C128.466 31.4661 128.148 31.4928 127.859 31.4928C127.57 31.4928 127.262 31.4661 126.921 31.4098C126.583 31.3534 126.285 31.2437 126.022 31.0777C125.762 30.9146 125.626 30.6833 125.619 30.3868C125.619 30.1881 125.674 30.034 125.785 29.9154C125.924 29.7879 126.093 29.7256 126.298 29.7256H126.366C126.522 29.7374 126.655 29.7938 126.762 29.8946C126.872 29.9984 126.924 30.117 126.924 30.2534C126.924 30.3394 126.902 30.4817 126.853 30.6804C126.853 30.8286 126.966 30.9324 127.191 30.9947C127.415 31.0569 127.645 31.0866 127.879 31.0866V31.0895Z" fill="white"/>
<path d="M48.4835 50.0965C48.4835 50.0965 48.4023 50.2269 48.2205 50.4879C48.1199 50.5887 48.0192 50.6747 47.9121 50.7488C47.8049 50.8229 47.727 50.8733 47.6718 50.9059C47.5062 50.9801 47.2984 51.0156 47.0517 51.0156C46.8049 51.0156 46.5971 50.9652 46.4315 50.8615C46.3861 50.8407 46.3179 50.7695 46.2302 50.648C46.1426 50.5264 46.0971 50.4019 46.0971 50.2714C46.0971 50.1409 46.1523 50.0105 46.2627 49.88C46.3569 49.7495 46.503 49.6843 46.6945 49.6843C46.7562 49.6843 46.8536 49.6991 46.9802 49.7258C46.9705 49.7258 47.0225 49.7644 47.1361 49.8444C47.2497 49.9245 47.3666 49.963 47.4803 49.963C47.503 49.963 47.5355 49.966 47.5842 49.9749C47.6329 49.9838 47.6686 49.9868 47.6978 49.9868C47.8114 49.9868 47.9121 49.9423 48.0062 49.8533C48.0679 49.7851 48.1523 49.6724 48.2595 49.5123C48.3666 49.3522 48.4251 49.2544 48.4381 49.2218L45.1913 44.7266C45.0874 44.6139 44.9932 44.5102 44.9055 44.4153C44.8179 44.3204 44.74 44.2463 44.6685 44.1899C44.5971 44.1336 44.5127 44.0891 44.4153 44.0565C44.3179 44.0239 44.2042 44.0091 44.0679 44.0091V43.6592H47.3634V44.0091H47.1004C46.6393 44.0091 46.4056 44.1188 46.4056 44.3352C46.4056 44.4183 46.438 44.5487 46.503 44.7266L49.0355 48.3055L50.9446 44.7266C51.0095 44.5754 51.042 44.4657 51.042 44.4005C51.042 44.2403 50.9706 44.1336 50.8277 44.0832C50.6848 44.0328 50.4998 44.0091 50.279 44.0091H50.0387V43.6592H52.7855V44.0091H52.6881C52.1264 44.0684 51.7271 44.3085 51.4933 44.7266L48.4835 50.0935V50.0965Z" fill="white"/>
<path d="M59.3772 47.3237H55.4129V49.7224C55.4129 49.9893 55.4551 50.182 55.5428 50.3036C55.6304 50.4252 55.7506 50.5023 55.8999 50.5319C56.0493 50.5616 56.2863 50.5853 56.6045 50.5942V50.9441H53.02V50.5942C53.3479 50.5823 53.585 50.5616 53.7343 50.5319C53.8837 50.5023 54.0006 50.4252 54.0882 50.3036C54.1726 50.182 54.2181 49.9893 54.2181 49.7195V44.8774C54.2181 44.6106 54.1726 44.4178 54.085 44.2963C53.9973 44.1747 53.8772 44.0976 53.7278 44.0679C53.5785 44.0383 53.3415 44.0146 53.0233 44.0057V43.6558H56.6077V44.0057C56.2084 44.0057 55.8999 44.0561 55.6791 44.1569C55.5655 44.2132 55.4941 44.2992 55.4649 44.4178C55.4324 44.5364 55.4194 44.6906 55.4194 44.8774V46.8611H59.3837V44.8774C59.3837 44.6284 59.3415 44.4416 59.2539 44.317C59.1662 44.1925 59.0428 44.1124 58.8837 44.0739C58.7246 44.0353 58.4941 44.0116 58.1922 44.0027V43.6528H61.7766V44.0027C61.3578 44.0027 61.0461 44.0531 60.8448 44.1539C60.7312 44.2103 60.6597 44.2963 60.6305 44.4149C60.598 44.5335 60.5851 44.6877 60.5851 44.8745V49.7165C60.5851 49.9923 60.6305 50.1909 60.7247 50.3125C60.8188 50.4341 60.939 50.5082 61.0818 50.5349C61.2279 50.5616 61.4584 50.5794 61.7799 50.5883V50.9381H58.1954V50.5883C58.5039 50.5794 58.7376 50.5556 58.8967 50.5201C59.0558 50.4815 59.1759 50.4015 59.2604 50.2799C59.3448 50.1583 59.3902 49.9685 59.3902 49.7165V47.3177L59.3772 47.3237Z" fill="white"/>
<path d="M68.4793 45.5802L64.515 49.7224C64.515 49.9893 64.5572 50.182 64.6448 50.3036C64.7325 50.4252 64.8526 50.5023 65.002 50.5319C65.1513 50.5616 65.3884 50.5853 65.7065 50.5942V50.9441H62.1221V50.5942C62.45 50.5823 62.687 50.5616 62.8364 50.5319C62.9857 50.5023 63.1026 50.4252 63.1903 50.3036C63.2747 50.182 63.3201 49.9893 63.3201 49.7195V44.8774C63.3201 44.6106 63.2747 44.4178 63.187 44.2963C63.0994 44.1747 62.9792 44.0976 62.8299 44.0679C62.6805 44.0383 62.4435 44.0146 62.1253 44.0057V43.6558H65.7098V44.0057C65.3104 44.0057 65.002 44.0561 64.7812 44.1569C64.6676 44.2132 64.5961 44.2992 64.5637 44.4178C64.5312 44.5364 64.5182 44.6906 64.5182 44.8774V49.0642L68.4825 44.8774C68.4825 44.6284 68.4403 44.4416 68.3527 44.317C68.265 44.1925 68.1416 44.1124 67.9825 44.0739C67.8234 44.0353 67.5929 44.0116 67.291 44.0027V43.6528H70.8754V44.0027C70.4566 44.0027 70.1449 44.0531 69.9436 44.1539C69.83 44.2103 69.7585 44.2963 69.7261 44.4149C69.6936 44.5335 69.6806 44.6877 69.6806 44.8745V49.7165C69.6806 49.9923 69.7261 50.1909 69.8202 50.3125C69.9144 50.4341 70.0345 50.5082 70.1806 50.5349C70.3267 50.5616 70.5572 50.5794 70.8787 50.5883V50.9381H67.2942V50.5883C67.6027 50.5794 67.8364 50.5556 67.9955 50.5201C68.1546 50.4815 68.2748 50.4015 68.3592 50.2799C68.4436 50.1583 68.489 49.9685 68.489 49.7165V45.5742L68.4793 45.5802Z" fill="white"/>
<path d="M75.0938 46.9979C75.5386 47.0157 75.9575 47.0988 76.3438 47.247C76.7302 47.3953 77.0484 47.6147 77.2887 47.9053C77.5289 48.1959 77.649 48.5487 77.649 48.9638C77.649 49.3552 77.5419 49.7051 77.3309 50.0075C77.1198 50.31 76.8309 50.5442 76.4705 50.7043C76.1101 50.8645 75.714 50.9475 75.2854 50.9475H71.2236V50.5976C71.5516 50.5857 71.7886 50.565 71.9379 50.5353C72.0873 50.5057 72.2042 50.4286 72.2918 50.307C72.3795 50.1854 72.4217 49.9927 72.4217 49.7229V44.8808C72.4217 44.614 72.3795 44.4183 72.2918 44.2967C72.2074 44.1751 72.0905 44.101 71.9379 44.0684C71.7886 44.0388 71.5483 44.015 71.2236 44.0061V43.6562H75.0938C75.4607 43.6562 75.8081 43.7156 76.136 43.8371C76.464 43.9587 76.727 44.1396 76.925 44.3857C77.1231 44.6288 77.2237 44.9253 77.2237 45.2722C77.2237 45.806 77.0257 46.2063 76.6328 46.4761C76.2399 46.7459 75.7269 46.9179 75.0971 46.995L75.0938 46.9979ZM73.6165 46.8675C74.1328 46.8675 74.5451 46.8408 74.8568 46.7874C75.1685 46.734 75.4217 46.6065 75.6166 46.402C75.8114 46.1974 75.9088 45.8801 75.9088 45.4501C75.9088 44.9787 75.8081 44.6229 75.6101 44.3857C75.412 44.1485 75.0646 44.0299 74.5711 44.0299H73.6165V46.8645V46.8675ZM73.6165 47.2174V49.7259C73.6165 50.052 73.7139 50.2714 73.912 50.3841C74.11 50.4998 74.399 50.5561 74.7854 50.5561C75.3211 50.5561 75.7075 50.396 75.9412 50.0728C76.175 49.7525 76.2919 49.3285 76.2919 48.8067C76.2919 48.3145 76.175 47.9497 75.938 47.7185C75.7042 47.4872 75.4088 47.3449 75.0549 47.2915C74.701 47.2381 74.2237 47.2114 73.6165 47.2114V47.2174Z" fill="white"/>
<path d="M84.3398 43.6593L84.5541 45.4502H84.1969C84.08 45.0055 83.8982 44.6556 83.6547 44.4065C83.4079 44.1574 83.0573 44.0299 82.5995 44.0299H80.856V46.8883H81.6189C82.3235 46.8883 82.6904 46.5532 82.7196 45.8831H83.1027V48.3471H82.7196C82.6677 47.9528 82.5768 47.6741 82.4436 47.5169C82.3138 47.3598 82.0378 47.2797 81.6189 47.2797H80.856V49.6133C80.856 49.975 80.9631 50.2241 81.1806 50.3634C81.3982 50.5028 81.7099 50.574 82.1222 50.574C82.7261 50.574 83.2034 50.5206 83.5605 50.4138C83.9177 50.3071 84.2164 50.061 84.4631 49.6785C84.6839 49.2723 84.8008 48.9461 84.8203 48.6941H85.1774L85.0118 50.9416H78.4663V50.5917C78.7942 50.5799 79.0313 50.5591 79.1806 50.5295C79.33 50.4998 79.4468 50.4227 79.5345 50.3012C79.6222 50.1796 79.6644 49.9869 79.6644 49.717V44.875C79.6644 44.6081 79.6222 44.4124 79.5345 44.2909C79.4501 44.1693 79.3332 44.0952 79.1806 44.0625C79.0313 44.0329 78.791 44.0092 78.4663 44.0003V43.6504H84.3463L84.3398 43.6593Z" fill="white"/>
<path d="M87.8485 47.4783V49.7229C87.8485 49.9898 87.8907 50.1825 87.9783 50.3041C88.066 50.4256 88.1861 50.5027 88.3355 50.5324C88.4848 50.562 88.7218 50.5828 89.04 50.5946V50.9445H85.4556V50.5946C85.7835 50.5828 86.0205 50.562 86.1699 50.5324C86.3192 50.5027 86.4361 50.4256 86.5238 50.3041C86.6114 50.1825 86.6536 49.9898 86.6536 49.7199V44.8779C86.6536 44.611 86.6082 44.4183 86.5205 44.2967C86.4329 44.1751 86.3127 44.0981 86.1634 44.0684C86.014 44.0388 85.777 44.015 85.4588 44.0061V43.6562H88.2543C88.9491 43.6562 89.5335 43.6918 90.0011 43.76C90.4719 43.8282 90.868 44.0061 91.1992 44.2908C91.5271 44.5754 91.6927 45.0113 91.6927 45.5984C91.6927 45.9364 91.605 46.2507 91.4297 46.5383C91.2544 46.826 91.0076 47.0513 90.6894 47.2114C90.3258 47.3864 89.7608 47.4753 88.9946 47.4753H87.8485V47.4783ZM87.8485 47.1521H88.7543C89.2803 47.1521 89.6861 47.0098 89.9719 46.7222C90.2576 46.4346 90.4004 46.0491 90.4004 45.5599C90.4004 45.1744 90.3355 44.8631 90.2024 44.6288C90.0693 44.3946 89.8712 44.2256 89.605 44.1218C89.3387 44.018 88.9978 43.9676 88.5822 43.9676C88.4913 43.9676 88.3647 43.9706 88.2024 43.9794C88.04 43.9854 87.9199 43.9913 87.842 43.9913V47.1551L87.8485 47.1521Z" fill="white"/>
<path d="M99.6011 43.683L99.7212 46.3012H99.3381C99.2115 45.8238 99.0297 45.4057 98.7894 45.044C98.5491 44.6822 98.2375 44.3976 97.8511 44.19C97.4647 43.9825 97.0069 43.8787 96.4712 43.8787C95.8511 43.8787 95.3348 44.0418 94.929 44.3709C94.5199 44.6971 94.2212 45.1181 94.0328 45.6311C93.8445 46.1411 93.7504 46.6718 93.7504 47.2174C93.7504 47.8075 93.8543 48.362 94.0653 48.8809C94.2764 49.3968 94.6043 49.8149 95.0491 50.1292C95.4939 50.4435 96.0491 50.6006 96.7115 50.6006C97.3089 50.6006 97.8835 50.4316 98.4323 50.0906C98.981 49.7496 99.3738 49.3227 99.6011 48.8097L100.03 49.1151C99.8284 49.5302 99.5362 49.892 99.1595 50.2003C98.7797 50.5087 98.3511 50.743 97.8673 50.9031C97.3835 51.0632 96.8933 51.1462 96.3998 51.1462C95.8153 51.1462 95.2764 51.0543 94.7796 50.8675C94.2828 50.6807 93.8575 50.4198 93.5004 50.0817C93.1432 49.7437 92.8705 49.3464 92.6757 48.8838C92.4809 48.4213 92.3867 47.9261 92.3867 47.3953C92.3867 46.8646 92.4841 46.3724 92.6757 45.898C92.8672 45.4265 93.1432 45.0084 93.5036 44.6437C93.864 44.282 94.2926 43.9973 94.7926 43.7927C95.2926 43.5881 95.8348 43.4873 96.4225 43.4873C97.3543 43.4873 98.2147 43.7334 99.0037 44.2286C99.0751 44.1218 99.1628 43.941 99.2667 43.686H99.6011V43.683Z" fill="white"/>
<path d="M106.667 45.5802L102.703 49.7224C102.703 49.9893 102.745 50.182 102.833 50.3036C102.92 50.4252 103.041 50.5023 103.19 50.5319C103.339 50.5616 103.576 50.5853 103.895 50.5942V50.9441H100.31V50.5942C100.638 50.5823 100.875 50.5616 101.024 50.5319C101.174 50.5023 101.291 50.4252 101.378 50.3036C101.466 50.182 101.508 49.9893 101.508 49.7195V44.8774C101.508 44.6106 101.463 44.4178 101.375 44.2963C101.287 44.1747 101.167 44.0976 101.018 44.0679C100.869 44.0383 100.631 44.0146 100.313 44.0057V43.6558H103.898V44.0057C103.498 44.0057 103.19 44.0561 102.969 44.1569C102.856 44.2132 102.784 44.2992 102.752 44.4178C102.719 44.5364 102.706 44.6906 102.706 44.8774V49.0642L106.671 44.8774C106.671 44.6284 106.628 44.4416 106.541 44.317C106.453 44.1925 106.33 44.1124 106.171 44.0739C106.011 44.0353 105.781 44.0116 105.479 44.0027V43.6528H109.063V44.0027C108.645 44.0027 108.333 44.0531 108.132 44.1539C108.018 44.2103 107.947 44.2963 107.914 44.4149C107.882 44.5335 107.869 44.6877 107.869 44.8745V49.7165C107.869 49.9923 107.914 50.1909 108.008 50.3125C108.102 50.4341 108.223 50.5082 108.365 50.5349C108.511 50.5616 108.742 50.5794 109.063 50.5883V50.9381H105.479V50.5883C105.787 50.5794 106.021 50.5556 106.18 50.5201C106.336 50.4815 106.459 50.4015 106.544 50.2799C106.628 50.1583 106.674 49.9685 106.674 49.7165V45.5742L106.667 45.5802Z" fill="white"/>
<path d="M114.863 50.9474H111.305V50.5975C111.629 50.5886 111.866 50.5679 112.022 50.5323C112.175 50.4967 112.295 50.4196 112.376 50.2981C112.457 50.1765 112.499 49.9867 112.499 49.7228V44.0298H111.159C110.697 44.0298 110.353 44.1484 110.129 44.3856C109.905 44.6228 109.723 44.9697 109.584 45.4264H109.201L109.415 43.6621H116.749L116.964 45.4264H116.607C116.503 45.1269 116.392 44.8808 116.279 44.6821C116.165 44.4834 116.003 44.3263 115.798 44.2077C115.594 44.0891 115.331 44.0298 115.006 44.0298H113.672V49.7228C113.672 49.9867 113.717 50.1794 113.808 50.304C113.899 50.4285 114.019 50.5026 114.168 50.5353C114.318 50.5649 114.551 50.5886 114.863 50.5975V50.9474Z" fill="white"/>
<path d="M123.031 43.6593L123.245 45.4502H122.888C122.771 45.0055 122.589 44.6556 122.346 44.4065C122.099 44.1574 121.748 44.0299 121.29 44.0299H119.547V46.8883H120.31C121.014 46.8883 121.381 46.5532 121.411 45.8831H121.794V48.3471H121.411C121.359 47.9528 121.264 47.6741 121.135 47.5169C121.005 47.3598 120.729 47.2797 120.31 47.2797H119.547V49.6133C119.547 49.975 119.654 50.2241 119.872 50.3634C120.086 50.5028 120.401 50.574 120.813 50.574C121.417 50.574 121.894 50.5206 122.251 50.4138C122.609 50.3071 122.907 50.061 123.154 49.6785C123.375 49.2723 123.492 48.9461 123.511 48.6941H123.868L123.703 50.9416H117.157V50.5917C117.485 50.5799 117.722 50.5591 117.872 50.5295C118.021 50.4998 118.138 50.4227 118.225 50.3012C118.313 50.1796 118.355 49.9869 118.355 49.717V44.875C118.355 44.6081 118.313 44.4124 118.225 44.2909C118.141 44.1693 118.021 44.0952 117.872 44.0625C117.722 44.0329 117.485 44.0092 117.157 44.0003V43.6504H123.037L123.031 43.6593Z" fill="white"/>
<path d="M129.599 50.9474H126.04V50.5975C126.365 50.5886 126.602 50.5679 126.758 50.5323C126.911 50.4967 127.031 50.4196 127.112 50.2981C127.193 50.1765 127.235 49.9867 127.235 49.7228V44.0298H125.894C125.433 44.0298 125.089 44.1484 124.865 44.3856C124.641 44.6228 124.459 44.9697 124.32 45.4264H123.937L124.151 43.6621H131.485L131.7 45.4264H131.342C131.239 45.1269 131.128 44.8808 131.015 44.6821C130.901 44.4834 130.739 44.3263 130.534 44.2077C130.329 44.0891 130.066 44.0298 129.742 44.0298H128.407V49.7228C128.407 49.9867 128.453 50.1794 128.544 50.304C128.635 50.4285 128.755 50.5026 128.904 50.5353C129.053 50.5649 129.287 50.5886 129.599 50.5975V50.9474Z" fill="white"/>
<path d="M46.257 56.5933H45.9064V54.4347H44.6011V56.5933H44.2505V54.1768H46.257V56.5933Z" fill="white"/>
<path d="M47.2403 55.6475V56.5933H46.8896V54.1768H47.8669C48.1559 54.1768 48.3832 54.245 48.5488 54.3784C48.7143 54.5118 48.7955 54.6927 48.7955 54.9151C48.7955 55.1493 48.7143 55.3302 48.5553 55.4577C48.3962 55.5852 48.1656 55.6475 47.8637 55.6475H47.2403ZM47.2403 55.3865H47.8669C48.052 55.3865 48.1981 55.345 48.2955 55.265C48.3962 55.1849 48.4449 55.0693 48.4449 54.9151C48.4449 54.7609 48.3962 54.6541 48.2955 54.5682C48.1949 54.4822 48.0585 54.4377 47.8864 54.4347H47.2403V55.3836V55.3865Z" fill="white"/>
<path d="M50.9122 54.1768H51.2629V56.5933H50.9122V54.7312L49.607 56.5933H49.2563V54.1768H49.607V56.0389L50.9122 54.1768Z" fill="white"/>
<path d="M54.8405 56.5933H54.4899V54.4347H53.1846V56.5933H52.834V54.1768H54.8405V56.5933Z" fill="white"/>
<path d="M55.8223 55.6475V56.5933H55.4717V54.1768H56.449C56.7379 54.1768 56.9652 54.245 57.1308 54.3784C57.2964 54.5118 57.3775 54.6927 57.3775 54.9151C57.3775 55.1493 57.2964 55.3302 57.1373 55.4577C56.9782 55.5852 56.7477 55.6475 56.4457 55.6475H55.8223ZM55.8223 55.3865H56.449C56.634 55.3865 56.7801 55.345 56.8775 55.265C56.9782 55.1849 57.0269 55.0693 57.0269 54.9151C57.0269 54.7609 56.9782 54.6541 56.8775 54.5682C56.7769 54.4822 56.6405 54.4377 56.4684 54.4347H55.8223V55.3836V55.3865Z" fill="white"/>
<path d="M59.0338 55.9618H57.9234L57.6734 56.5933H57.313L58.3227 54.1768H58.6279L59.6409 56.5933H59.2838L59.0305 55.9618H59.0338ZM58.0305 55.7008H58.9299L58.4786 54.5711L58.0305 55.7008Z" fill="white"/>
<path d="M60.002 56.5933V54.1768H60.8688C61.1546 54.1768 61.3721 54.2301 61.5182 54.3398C61.6643 54.4495 61.7357 54.6097 61.7357 54.8202C61.7357 54.9329 61.7 55.0337 61.6318 55.1197C61.5604 55.2057 61.4663 55.2739 61.3429 55.3213C61.4857 55.3569 61.5994 55.428 61.6805 55.5289C61.765 55.6326 61.8039 55.7542 61.8039 55.8965C61.8039 56.113 61.726 56.285 61.5734 56.4065C61.4208 56.5311 61.2033 56.5933 60.9208 56.5933H60.002ZM60.3526 55.2057H60.8786C61.0312 55.2057 61.1546 55.1701 61.2455 55.1019C61.3364 55.0307 61.3818 54.9358 61.3818 54.8172C61.3818 54.6838 61.3396 54.5859 61.2552 54.5266C61.1708 54.4673 61.0409 54.4347 60.8688 54.4347H60.3526V55.2057ZM60.3526 55.4607V56.3294H60.9305C61.0929 56.3294 61.2228 56.2909 61.3137 56.2138C61.4078 56.1367 61.4533 56.03 61.4533 55.8965C61.4533 55.6059 61.2812 55.4607 60.9338 55.4607H60.3526Z" fill="white"/>
<path d="M63.9908 54.1768H64.3415V56.5933H63.9908V54.7312L62.6856 56.5933H62.335V54.1768H62.6856V56.0389L63.9908 54.1768Z" fill="white"/>
<path d="M66.7519 54.4377H65.9012V56.5963H65.5538V54.4377H64.7031V54.1768H66.7519V54.4377Z" fill="white"/>
<path d="M68.6395 55.4774H67.4934V56.3344H68.8278V56.5953H67.146V54.1787H68.8084V54.4396H67.4934V55.2195H68.6395V55.4804V55.4774Z" fill="white"/>
<path d="M71.2651 54.1763V56.5929H70.9144V54.4343H69.9664L69.9177 55.392C69.8982 55.7122 69.8625 55.9554 69.8105 56.1155C69.7553 56.2786 69.6774 56.3972 69.5735 56.4713C69.4696 56.5484 69.33 56.587 69.1547 56.5899H69.041V56.329H69.1124C69.2261 56.3171 69.3105 56.2845 69.3722 56.2252C69.4339 56.1659 69.4793 56.071 69.5118 55.9435C69.5443 55.8131 69.567 55.6144 69.58 55.3446L69.6352 54.1733H71.2651V54.1763Z" fill="white"/>
<path d="M72.2351 55.1641H72.8942C73.1702 55.167 73.3877 55.2323 73.5403 55.3598C73.6962 55.4873 73.7741 55.6563 73.7741 55.8757C73.7741 56.0951 73.6962 56.2671 73.5403 56.3976C73.3845 56.528 73.1702 56.5933 72.9007 56.5992H71.8877V54.1826H72.2383V55.17L72.2351 55.1641ZM72.2351 55.425V56.3353H72.8747C73.0468 56.3353 73.1832 56.2938 73.2806 56.2078C73.378 56.1218 73.4267 56.0091 73.4267 55.8698C73.4267 55.7304 73.3812 55.6266 73.2871 55.5466C73.1929 55.4665 73.063 55.428 72.891 55.425H72.2383H72.2351Z" fill="white"/>
<path d="M76.1804 55.8277C76.1479 56.0827 76.0441 56.2814 75.8687 56.4207C75.6934 56.5601 75.4629 56.6283 75.1739 56.6283C74.8622 56.6283 74.609 56.5245 74.4207 56.3199C74.2323 56.1153 74.1382 55.8425 74.1382 55.4986V55.2673C74.1382 55.042 74.1804 54.8463 74.2713 54.6743C74.359 54.5053 74.4823 54.3718 74.6447 54.2829C74.807 54.191 74.9921 54.1465 75.2031 54.1465C75.4856 54.1465 75.7096 54.2176 75.8785 54.3629C76.0473 54.5053 76.1479 54.7039 76.1739 54.9589H75.8233C75.7941 54.7662 75.7259 54.6268 75.6252 54.5379C75.5246 54.4519 75.3817 54.4074 75.1999 54.4074C74.9759 54.4074 74.8005 54.4815 74.6739 54.6328C74.5473 54.784 74.4856 54.9975 74.4856 55.2762V55.5104C74.4856 55.7743 74.544 55.9819 74.6642 56.1361C74.7843 56.2903 74.9531 56.3674 75.1674 56.3674C75.3622 56.3674 75.5116 56.3258 75.6155 56.2458C75.7194 56.1657 75.7876 56.0264 75.8233 55.8277H76.1739H76.1804Z" fill="white"/>
<path d="M78.433 54.4377H77.5823V56.5963H77.2349V54.4377H76.3843V54.1768H78.433V54.4377Z" fill="white"/>
<path d="M78.8252 56.5933V54.1768H79.6921C79.9778 54.1768 80.1953 54.2301 80.3414 54.3398C80.4876 54.4495 80.559 54.6097 80.559 54.8202C80.559 54.9329 80.5233 55.0337 80.4518 55.1197C80.3804 55.2057 80.2863 55.2739 80.1661 55.3213C80.309 55.3569 80.4226 55.428 80.5038 55.5289C80.585 55.6326 80.6272 55.7542 80.6272 55.8965C80.6272 56.113 80.5492 56.285 80.3966 56.4065C80.244 56.5311 80.0265 56.5933 79.744 56.5933H78.8252ZM79.1758 55.2057H79.7018C79.8544 55.2057 79.9778 55.1701 80.0687 55.1019C80.1596 55.0307 80.2051 54.9358 80.2051 54.8172C80.2051 54.6838 80.1629 54.5859 80.0785 54.5266C79.994 54.4673 79.8642 54.4347 79.6921 54.4347H79.1758V55.2057ZM79.1758 55.4607V56.3294H79.7538C79.9161 56.3294 80.046 56.2909 80.1369 56.2138C80.2311 56.1367 80.2765 56.03 80.2765 55.8965C80.2765 55.6059 80.1044 55.4607 79.757 55.4607H79.1758Z" fill="white"/>
<path d="M82.6415 55.4774H81.4954V56.3344H82.8298V56.5953H81.1479V54.1787H82.8103V54.4396H81.4954V55.2195H82.6415V55.4804V55.4774Z" fill="white"/>
<path d="M84.5333 55.6475V56.5933H84.1826V54.1768H85.1599C85.4489 54.1768 85.6761 54.245 85.8417 54.3784C86.0073 54.5118 86.0885 54.6927 86.0885 54.9151C86.0885 55.1493 86.0073 55.3302 85.8482 55.4577C85.6859 55.5852 85.4586 55.6475 85.1567 55.6475H84.5333ZM84.5333 55.3865H85.1599C85.3482 55.3865 85.4911 55.345 85.5885 55.265C85.6891 55.1849 85.7378 55.0693 85.7378 54.9151C85.7378 54.7609 85.6891 54.6541 85.5885 54.5682C85.4878 54.4822 85.3515 54.4377 85.1794 54.4347H84.5333V55.3836V55.3865Z" fill="white"/>
<path d="M88.5713 55.4631C88.5713 55.7003 88.5291 55.9078 88.4414 56.0828C88.3538 56.2607 88.2304 56.3941 88.0713 56.486C87.9122 56.578 87.7239 56.6254 87.5096 56.6254C87.2953 56.6254 87.1167 56.578 86.9544 56.486C86.7921 56.3912 86.6687 56.2577 86.5778 56.0857C86.4869 55.9138 86.4414 55.7121 86.4414 55.4838V55.3089C86.4414 55.0776 86.4869 54.87 86.5745 54.6921C86.6622 54.5142 86.7888 54.3778 86.9512 54.283C87.1135 54.1881 87.2986 54.1406 87.5064 54.1406C87.7142 54.1406 87.9057 54.1881 88.0681 54.28C88.2304 54.3749 88.3538 54.5083 88.4414 54.6862C88.5291 54.8641 88.5713 55.0717 88.5713 55.3059V55.4601V55.4631ZM88.2239 55.3059C88.2239 55.0183 88.1622 54.7989 88.0356 54.6447C87.909 54.4905 87.7336 54.4134 87.5064 54.4134C87.2791 54.4134 87.1135 54.4905 86.9869 54.6447C86.8603 54.7989 86.7953 55.0094 86.7921 55.2822V55.4601C86.7921 55.7388 86.857 55.9553 86.9836 56.1154C87.1103 56.2755 87.2888 56.3526 87.5129 56.3526C87.7369 56.3526 87.9122 56.2785 88.0356 56.1273C88.159 55.976 88.2239 55.7625 88.2271 55.4809V55.303L88.2239 55.3059Z" fill="white"/>
<path d="M91.0409 55.8277C91.0085 56.0827 90.9046 56.2814 90.7325 56.4207C90.5572 56.5601 90.3266 56.6283 90.0377 56.6283C89.726 56.6283 89.4727 56.5245 89.2844 56.3199C89.0961 56.1153 89.002 55.8425 89.002 55.4986V55.2673C89.002 55.042 89.0474 54.8463 89.1351 54.6743C89.2227 54.5053 89.3461 54.3718 89.5085 54.2829C89.6708 54.191 89.8559 54.1465 90.0669 54.1465C90.3494 54.1465 90.5734 54.2176 90.7422 54.3629C90.9111 54.5053 91.0117 54.7039 91.0377 54.9589H90.687C90.6578 54.7662 90.5896 54.6268 90.489 54.5379C90.3883 54.4519 90.2455 54.4074 90.0637 54.4074C89.8396 54.4074 89.6643 54.4815 89.5377 54.6328C89.411 54.784 89.3461 54.9975 89.3461 55.2762V55.5104C89.3461 55.7743 89.4078 55.9819 89.5247 56.1361C89.6448 56.2903 89.8137 56.3674 90.0279 56.3674C90.2228 56.3674 90.3721 56.3258 90.476 56.2458C90.5799 56.1657 90.6481 56.0264 90.6838 55.8277H91.0345H91.0409Z" fill="white"/>
<path d="M93.4643 55.8277C93.4318 56.0827 93.3279 56.2814 93.1558 56.4207C92.9805 56.5601 92.75 56.6283 92.461 56.6283C92.1493 56.6283 91.8961 56.5245 91.7078 56.3199C91.5194 56.1153 91.4253 55.8425 91.4253 55.4986V55.2673C91.4253 55.042 91.4707 54.8463 91.5584 54.6743C91.6461 54.5053 91.7695 54.3718 91.9318 54.2829C92.0941 54.191 92.2792 54.1465 92.4902 54.1465C92.7727 54.1465 92.9967 54.2176 93.1656 54.3629C93.3344 54.5053 93.4351 54.7039 93.461 54.9589H93.1104C93.0812 54.7662 93.013 54.6268 92.9123 54.5379C92.8117 54.4519 92.6688 54.4074 92.487 54.4074C92.263 54.4074 92.0876 54.4815 91.961 54.6328C91.8344 54.784 91.7695 54.9975 91.7695 55.2762V55.5104C91.7695 55.7743 91.8311 55.9819 91.948 56.1361C92.0682 56.2903 92.237 56.3674 92.4513 56.3674C92.6461 56.3674 92.7954 56.3258 92.8993 56.2458C93.0032 56.1657 93.0714 56.0264 93.1071 55.8277H93.4578H93.4643Z" fill="white"/>
<path d="M95.6129 54.1768H95.9635V56.5933H95.6129V54.7312L94.3077 56.5933H93.957V54.1768H94.3077V56.0389L95.6129 54.1768Z" fill="white"/>
<path d="M98.2643 54.1767H98.6149V56.5933H98.2643V54.7312L96.9591 56.5933H96.6084V54.1767H96.9591V56.0388L98.2643 54.1767ZM98.1669 53.5748C98.1669 53.7082 98.1182 53.8179 98.0175 53.898C97.9169 53.981 97.787 54.0195 97.6246 54.0195C97.4623 54.0195 97.3292 53.978 97.2285 53.895C97.1279 53.812 97.0792 53.7052 97.0792 53.5718H97.3552C97.3552 53.6489 97.3779 53.7112 97.4233 53.7527C97.4688 53.7942 97.537 53.8179 97.6246 53.8179C97.7123 53.8179 97.774 53.7972 97.8227 53.7527C97.8714 53.7082 97.8941 53.6489 97.8941 53.5688H98.1669V53.5748Z" fill="white"/>
<path d="M101.198 55.8277C101.166 56.0827 101.062 56.2814 100.89 56.4207C100.714 56.5601 100.484 56.6283 100.195 56.6283C99.8832 56.6283 99.63 56.5245 99.4416 56.3199C99.2533 56.1153 99.1592 55.8425 99.1592 55.4986V55.2673C99.1592 55.042 99.2046 54.8463 99.2923 54.6743C99.38 54.5053 99.5033 54.3718 99.6657 54.2829C99.828 54.191 100.013 54.1465 100.224 54.1465C100.507 54.1465 100.731 54.2176 100.899 54.3629C101.068 54.5053 101.169 54.7039 101.195 54.9589H100.844C100.815 54.7662 100.747 54.6268 100.646 54.5379C100.546 54.4519 100.403 54.4074 100.221 54.4074C99.9968 54.4074 99.8215 54.4815 99.6949 54.6328C99.5683 54.784 99.5033 54.9975 99.5033 55.2762V55.5104C99.5033 55.7743 99.565 55.9819 99.6819 56.1361C99.802 56.2903 99.9709 56.3674 100.185 56.3674C100.38 56.3674 100.529 56.3258 100.633 56.2458C100.737 56.1657 100.805 56.0264 100.841 55.8277H101.192H101.198Z" fill="white"/>
<path d="M102.364 55.5081H102.043V56.5933H101.692V54.1768H102.043V55.2442H102.315L103.241 54.1768H103.676L102.666 55.348L103.75 56.5933H103.322L102.364 55.5081Z" fill="white"/>
<path d="M106.046 55.4631C106.046 55.7003 106.004 55.9078 105.917 56.0828C105.829 56.2607 105.705 56.3941 105.546 56.486C105.387 56.578 105.199 56.6254 104.985 56.6254C104.77 56.6254 104.592 56.578 104.429 56.486C104.267 56.3912 104.144 56.2577 104.053 56.0857C103.962 55.9138 103.917 55.7121 103.917 55.4838V55.3089C103.917 55.0776 103.962 54.87 104.05 54.6921C104.137 54.5142 104.264 54.3778 104.426 54.283C104.589 54.1881 104.774 54.1406 104.981 54.1406C105.189 54.1406 105.381 54.1881 105.543 54.28C105.705 54.3749 105.829 54.5083 105.917 54.6862C106.004 54.8641 106.046 55.0717 106.046 55.3059V55.4601V55.4631ZM105.699 55.3059C105.699 55.0183 105.637 54.7989 105.511 54.6447C105.384 54.4905 105.209 54.4134 104.981 54.4134C104.754 54.4134 104.589 54.4905 104.462 54.6447C104.335 54.7989 104.27 55.0094 104.267 55.2822V55.4601C104.267 55.7388 104.332 55.9553 104.459 56.1154C104.585 56.2755 104.764 56.3526 104.988 56.3526C105.212 56.3526 105.387 56.2785 105.511 56.1273C105.634 55.976 105.699 55.7625 105.702 55.4809V55.303L105.699 55.3059Z" fill="white"/>
<path d="M108.241 54.1767H108.591V56.5933H108.241V54.7312L106.936 56.5933H106.585V54.1767H106.936V56.0388L108.241 54.1767ZM108.143 53.5748C108.143 53.7082 108.095 53.8179 107.994 53.898C107.893 53.981 107.764 54.0195 107.601 54.0195C107.439 54.0195 107.306 53.978 107.205 53.895C107.104 53.812 107.056 53.7052 107.056 53.5718H107.332C107.332 53.6489 107.354 53.7112 107.4 53.7527C107.445 53.7942 107.514 53.8179 107.601 53.8179C107.689 53.8179 107.751 53.7972 107.799 53.7527C107.848 53.7082 107.871 53.6489 107.871 53.5688H108.143V53.5748Z" fill="white"/>
<path d="M111.456 54.4202H111.511C111.713 54.4202 111.894 54.4647 112.06 54.5477C112.226 54.6307 112.352 54.7493 112.443 54.8946C112.534 55.0429 112.58 55.2089 112.58 55.3898C112.58 55.5707 112.534 55.7397 112.44 55.8909C112.349 56.0392 112.219 56.1578 112.057 56.2408C111.894 56.3238 111.713 56.3683 111.515 56.3683H111.45V56.6944H111.112V56.3683H111.06C110.859 56.3683 110.674 56.3268 110.508 56.2408C110.342 56.1578 110.213 56.0392 110.122 55.8909C110.031 55.7426 109.985 55.5766 109.985 55.3898C109.985 55.203 110.031 55.0369 110.122 54.8887C110.213 54.7404 110.342 54.6248 110.508 54.5388C110.674 54.4528 110.859 54.4113 111.06 54.4113H111.112V54.0703H111.45V54.4113L111.456 54.4202ZM111.067 54.6722C110.839 54.6722 110.657 54.7375 110.524 54.865C110.391 54.9925 110.326 55.1704 110.326 55.3957C110.326 55.6211 110.391 55.8019 110.524 55.9265C110.657 56.054 110.839 56.1162 111.07 56.1162H111.118V54.6693H111.067V54.6722ZM111.456 54.6722V56.1192H111.508C111.739 56.1192 111.92 56.054 112.05 55.9235C112.18 55.793 112.245 55.6151 112.245 55.3928C112.245 55.1704 112.18 54.9954 112.05 54.865C111.92 54.7345 111.735 54.6693 111.502 54.6693H111.459L111.456 54.6722Z" fill="white"/>
<path d="M114.517 55.4774H113.371V56.3344H114.705V56.5953H113.023V54.1787H114.686V54.4396H113.371V55.2195H114.517V55.4804V55.4774Z" fill="white"/>
<path d="M117.521 57.1864H117.174V56.5933H115.274V57.1864H114.924V56.3324H115.138C115.252 56.2138 115.343 56.0566 115.411 55.8609C115.479 55.6623 115.521 55.4458 115.537 55.2116L115.596 54.1768H117.18V56.3324H117.525V57.1864H117.521ZM115.537 56.3324H116.83V54.4347H115.934L115.895 55.1464C115.878 55.4251 115.839 55.6623 115.774 55.858C115.71 56.0537 115.632 56.2108 115.537 56.3324Z" fill="white"/>
<path d="M119.435 55.4774H118.289V56.3344H119.623V56.5953H117.941V54.1787H119.604V54.4396H118.289V55.2195H119.435V55.4804V55.4774Z" fill="white"/>
<path d="M120.405 55.6475V56.5933H120.054V54.1768H121.031C121.32 54.1768 121.548 54.245 121.713 54.3784C121.879 54.5118 121.96 54.6927 121.96 54.9151C121.96 55.1493 121.879 55.3302 121.72 55.4577C121.557 55.5852 121.33 55.6475 121.028 55.6475H120.405ZM120.405 55.3865H121.031C121.22 55.3865 121.363 55.345 121.46 55.265C121.561 55.1849 121.609 55.0693 121.609 54.9151C121.609 54.7609 121.561 54.6541 121.46 54.5682C121.359 54.4822 121.223 54.4377 121.051 54.4347H120.405V55.3836V55.3865Z" fill="white"/>
<path d="M123.616 55.9618H122.506L122.256 56.5933H121.896L122.905 54.1768H123.21L124.223 56.5933H123.866L123.613 55.9618H123.616ZM122.613 55.7008H123.512L123.061 54.5711L122.613 55.7008Z" fill="white"/>
<path d="M124.594 54.1768H124.944V56.3324H126.25V54.1768H126.6V56.3265H126.879L126.847 57.1775H126.532V56.5933H124.597V54.1768H124.594Z" fill="white"/>
<path d="M128.977 54.1768H129.327V56.5933H128.977V54.7312L127.671 56.5933H127.321V54.1768H127.671V56.0389L128.977 54.1768Z" fill="white"/>
<path d="M131.629 54.1768H131.979V56.5933H131.629V54.7312L130.323 56.5933H129.973V54.1768H130.323V56.0389L131.629 54.1768Z" fill="white"/>
<path d="M0 56.4211C10.2891 55.1017 20.6496 51.1106 28.1984 43.4902C27.3932 46.2063 23.0101 53.1239 18.7697 56.4211H0Z" fill="white" stroke="#ABADB0" stroke-width="0.305051"/>
<path d="M18.5713 54.2844L18.5789 54.4345C18.4974 54.4922 18.4116 54.5371 18.3215 54.5694C18.2315 54.5999 18.1406 54.6152 18.0489 54.6152C17.9504 54.6152 17.8612 54.5965 17.7814 54.5592C17.7032 54.5202 17.6412 54.4634 17.5954 54.3887C17.5495 54.3141 17.5257 54.2208 17.524 54.1088C17.5223 53.9884 17.5469 53.8858 17.5979 53.801C17.6506 53.7144 17.7228 53.6483 17.8145 53.6025C17.9062 53.555 18.0107 53.5312 18.1279 53.5312C18.2519 53.5312 18.3615 53.5592 18.4566 53.6152C18.5517 53.6712 18.6248 53.7577 18.6757 53.8747C18.7284 53.9918 18.7547 54.1419 18.7547 54.3251C18.7547 54.5321 18.7207 54.7127 18.6528 54.8671C18.5865 55.0197 18.4906 55.1385 18.3649 55.2233C18.2409 55.3081 18.0922 55.3505 17.919 55.3505C17.8306 55.3505 17.738 55.3386 17.6412 55.3149L17.6591 55.1622C17.7032 55.1707 17.7448 55.1775 17.7839 55.1826C17.8247 55.186 17.862 55.1877 17.896 55.1877C18.0421 55.1877 18.1627 55.1529 18.2578 55.0833C18.353 55.0121 18.4235 54.912 18.4693 54.7831C18.5169 54.6542 18.5407 54.5015 18.5407 54.3251C18.5407 54.1114 18.505 53.9536 18.4337 53.8518C18.364 53.7484 18.2612 53.6966 18.1253 53.6966C18.0081 53.6966 17.9139 53.7323 17.8425 53.8035C17.7729 53.8731 17.738 53.9697 17.738 54.0936C17.738 54.1801 17.7542 54.2505 17.7865 54.3048C17.8204 54.359 17.8646 54.3989 17.919 54.4243C17.975 54.4498 18.037 54.4625 18.105 54.4625C18.1831 54.4625 18.2621 54.4472 18.3419 54.4167C18.4218 54.3862 18.4982 54.3421 18.5713 54.2844Z" fill="#8E9193"/>
<path d="M17.0879 55.2181L17.042 55.1621L17.3835 55.2155V55.33H16.5197V55.2155L16.9248 55.1646L16.879 55.2181V53.7296L16.935 53.7347L16.4916 53.9917L16.4229 53.8619L16.9172 53.5464H17.0879V55.2181Z" fill="#8E9193"/>
<path d="M16.0429 54.2844L16.0506 54.4345C15.969 54.4922 15.8833 54.5371 15.7932 54.5694C15.7032 54.5999 15.6123 54.6152 15.5206 54.6152C15.4221 54.6152 15.3329 54.5965 15.253 54.5592C15.1749 54.5202 15.1129 54.4634 15.067 54.3887C15.0212 54.3141 14.9974 54.2208 14.9957 54.1088C14.994 53.9884 15.0186 53.8858 15.0696 53.801C15.1222 53.7144 15.1944 53.6483 15.2862 53.6025C15.3779 53.555 15.4824 53.5312 15.5996 53.5312C15.7236 53.5312 15.8331 53.5592 15.9283 53.6152C16.0234 53.6712 16.0964 53.7577 16.1474 53.8747C16.2001 53.9918 16.2264 54.1419 16.2264 54.3251C16.2264 54.5321 16.1924 54.7127 16.1245 54.8671C16.0582 55.0197 15.9622 55.1385 15.8365 55.2233C15.7125 55.3081 15.5639 55.3505 15.3906 55.3505C15.3023 55.3505 15.2097 55.3386 15.1129 55.3149L15.1307 55.1622C15.1749 55.1707 15.2165 55.1775 15.2556 55.1826C15.2964 55.186 15.3337 55.1877 15.3677 55.1877C15.5138 55.1877 15.6344 55.1529 15.7295 55.0833C15.8247 55.0121 15.8951 54.912 15.941 54.7831C15.9886 54.6542 16.0124 54.5015 16.0124 54.3251C16.0124 54.1114 15.9767 53.9536 15.9053 53.8518C15.8357 53.7484 15.7329 53.6966 15.597 53.6966C15.4798 53.6966 15.3855 53.7323 15.3142 53.8035C15.2445 53.8731 15.2097 53.9697 15.2097 54.0936C15.2097 54.1801 15.2259 54.2505 15.2581 54.3048C15.2921 54.359 15.3363 54.3989 15.3906 54.4243C15.4467 54.4498 15.5087 54.4625 15.5766 54.4625C15.6548 54.4625 15.7338 54.4472 15.8136 54.4167C15.8934 54.3862 15.9699 54.3421 16.0429 54.2844Z" fill="#8E9193"/>
<path d="M14.5596 55.2181L14.5137 55.1621L14.8551 55.2155V55.33H13.9914V55.2155L14.3965 55.1646L14.3506 55.2181V53.7296L14.4067 53.7347L13.9633 53.9917L13.8945 53.8619L14.3889 53.5464H14.5596V55.2181Z" fill="#8E9193"/>
</g>
<defs>
<clipPath id="clip0_12_35">
<rect width="132" height="66" fill="white"/>
</clipPath>
</defs>
</svg>
