<svg width="66" height="53" viewBox="0 0 66 53" fill="none" xmlns="http://www.w3.org/2000/svg">
<path d="M0 45V24.0913L7.82856 16.6084V32.5859L18.8841 16.608H26.2743V45H18.4458V29.0221L7.39034 45H0Z" fill="white"/>
<path d="M0 45V24.0913L7.82856 16.6084V32.5859L18.8841 16.608H26.2743V45H18.4458V29.0221L7.39034 45H0Z" fill="white"/>
<path d="M38.6307 29.9875C38.6307 27.9415 39.0092 26.0144 39.7662 24.2061C40.5364 22.3846 41.5789 20.8204 42.8936 19.5136C44.2216 18.1937 45.8218 17.151 47.6944 16.3855C49.5668 15.6199 51.5654 15.2371 53.6902 15.2371C58.776 15.2371 62.7734 17.2369 65.6825 21.2362L59.8856 25.6911C58.1185 23.4998 56.0207 22.4043 53.5906 22.4043C51.6118 22.4043 49.9784 23.1369 48.6904 24.6021C47.4154 26.0539 46.778 27.8491 46.778 29.9875C46.778 32.1389 47.4154 33.9406 48.6904 35.3926C49.9784 36.8445 51.6118 37.5705 53.5906 37.5705C54.985 37.5705 56.1669 37.2866 57.1364 36.7191C58.1185 36.1383 59.0886 35.2739 60.045 34.1254L66 38.3426C65.0312 39.6626 64.0025 40.7712 62.9129 41.669C61.837 42.5665 60.4759 43.3056 58.8296 43.8864C57.1961 44.4671 55.3701 44.7576 53.3515 44.7576C50.6558 44.7576 48.1858 44.1306 45.9414 42.8766C43.6971 41.6096 41.9176 39.8474 40.6028 37.5903C39.2881 35.3199 38.6307 32.7858 38.6307 29.9875Z" fill="white"/>
<path d="M38.6307 29.9875C38.6307 27.9415 39.0092 26.0144 39.7662 24.2061C40.5364 22.3846 41.5789 20.8204 42.8936 19.5136C44.2216 18.1937 45.8218 17.151 47.6944 16.3855C49.5668 15.6199 51.5654 15.2371 53.6902 15.2371C58.776 15.2371 62.7734 17.2369 65.6825 21.2362L59.8856 25.6911C58.1185 23.4998 56.0207 22.4043 53.5906 22.4043C51.6118 22.4043 49.9784 23.1369 48.6904 24.6021C47.4154 26.0539 46.778 27.8491 46.778 29.9875C46.778 32.1389 47.4154 33.9406 48.6904 35.3926C49.9784 36.8445 51.6118 37.5705 53.5906 37.5705C54.985 37.5705 56.1669 37.2866 57.1364 36.7191C58.1185 36.1383 59.0886 35.2739 60.045 34.1254L66 38.3426C65.0312 39.6626 64.0025 40.7712 62.9129 41.669C61.837 42.5665 60.4759 43.3056 58.8296 43.8864C57.1961 44.4671 55.3701 44.7576 53.3515 44.7576C50.6558 44.7576 48.1858 44.1306 45.9414 42.8766C43.6971 41.6096 41.9176 39.8474 40.6028 37.5903C39.2881 35.3199 38.6307 32.7858 38.6307 29.9875Z" fill="white"/>
<path d="M19.9248 14.91L24.2834 8H45.3634V14.91H36.7781V39.0791L28.8698 44.8563V14.91H19.9248Z" fill="white"/>
</svg>
